<?xml version="1.0" encoding="iso-8859-1"?>
<!-- Generator: Adobe Illustrator 19.0.0, SVG Export Plug-In . SVG Version: 6.00 Build 0)  -->
<svg version="1.1" id="Layer_1" xmlns="http://www.w3.org/2000/svg" xmlns:xlink="http://www.w3.org/1999/xlink" x="0px" y="0px"
	 viewBox="0 0 441.297 441.297" style="enable-background:new 0 0 441.297 441.297;" xml:space="preserve">
<g>
	<rect x="11.648" y="120.982" style="fill:#F93030;" width="418" height="300"/>
	<rect x="35.648" y="207.982" style="fill:#B52828;" width="244" height="213"/>
	<rect x="40.648" y="212.982" style="fill:#2D4151;" width="234" height="208"/>
	<g>
		<rect x="40.648" y="212.982" style="fill:#839BAA;" width="234" height="208"/>
		<g>
			<g>
				<rect x="40.648" y="215.508" style="fill:#678391;" width="234" height="3"/>
			</g>
			<g>
				<rect x="40.648" y="222.613" style="fill:#678391;" width="234" height="3"/>
			</g>
			<g>
				<rect x="40.648" y="229.719" style="fill:#678391;" width="234" height="3"/>
			</g>
			<g>
				<rect x="40.648" y="236.824" style="fill:#678391;" width="234" height="3"/>
			</g>
			<g>
				<rect x="40.648" y="243.929" style="fill:#678391;" width="234" height="3"/>
			</g>
			<g>
				<rect x="40.648" y="251.034" style="fill:#678391;" width="234" height="3"/>
			</g>
			<g>
				<rect x="40.648" y="258.14" style="fill:#678391;" width="234" height="3"/>
			</g>
			<g>
				<rect x="40.648" y="265.245" style="fill:#678391;" width="234" height="3"/>
			</g>
			<g>
				<rect x="40.648" y="272.35" style="fill:#678391;" width="234" height="3"/>
			</g>
			<g>
				<rect x="40.648" y="286.561" style="fill:#678391;" width="234" height="3"/>
			</g>
			<g>
				<rect x="40.648" y="300.771" style="fill:#678391;" width="234" height="3"/>
			</g>
			<g>
				<rect x="40.648" y="314.982" style="fill:#678391;" width="234" height="3"/>
			</g>
			<g>
				<rect x="40.648" y="279.456" style="fill:#678391;" width="234" height="3"/>
			</g>
			<g>
				<rect x="40.648" y="293.666" style="fill:#678391;" width="234" height="3"/>
			</g>
			<g>
				<rect x="40.648" y="307.876" style="fill:#678391;" width="234" height="3"/>
			</g>
			<g>
				<rect x="40.648" y="322.087" style="fill:#678391;" width="234" height="3"/>
			</g>
			<g>
				<rect x="40.648" y="329.192" style="fill:#678391;" width="234" height="3"/>
			</g>
			<g>
				<rect x="40.648" y="336.297" style="fill:#678391;" width="234" height="3"/>
			</g>
			<g>
				<rect x="40.648" y="343.403" style="fill:#678391;" width="234" height="3"/>
			</g>
		</g>
		<g>
			<g>
				<rect x="40.648" y="350.508" style="fill:#678391;" width="234" height="3"/>
			</g>
			<g>
				<rect x="40.648" y="357.613" style="fill:#678391;" width="234" height="3"/>
			</g>
			<g>
				<rect x="40.648" y="364.719" style="fill:#678391;" width="234" height="3"/>
			</g>
			<g>
				<rect x="40.648" y="371.824" style="fill:#678391;" width="234" height="3"/>
			</g>
			<g>
				<rect x="40.648" y="378.929" style="fill:#678391;" width="234" height="3"/>
			</g>
			<g>
				<rect x="40.648" y="386.034" style="fill:#678391;" width="234" height="3"/>
			</g>
			<g>
				<rect x="40.648" y="393.14" style="fill:#678391;" width="234" height="3"/>
			</g>
			<g>
				<rect x="40.648" y="400.245" style="fill:#678391;" width="234" height="3"/>
			</g>
			<g>
				<rect x="40.648" y="414.456" style="fill:#678391;" width="234" height="3"/>
			</g>
			<g>
				<rect x="40.648" y="407.35" style="fill:#678391;" width="234" height="3"/>
			</g>
		</g>
	</g>
	<rect x="307.478" y="207.982" style="fill:#B52828;" width="86.667" height="59"/>
	<rect x="312.479" y="212.982" style="fill:#FC5454;" width="76.667" height="48.5"/>
	<g>
		<rect x="353.318" y="217.982" style="fill:#2D4151;" width="30.83" height="38.5"/>
		<rect x="317.479" y="217.982" style="fill:#2D4151;" width="30.84" height="38.5"/>
	</g>
	<rect x="307.478" y="274.982" style="fill:#B52828;" width="86.667" height="146"/>
	<rect x="312.479" y="279.982" style="fill:#FC5454;" width="76.667" height="141"/>
	<g>
		<rect x="353.318" y="284.982" style="fill:#2D4151;" width="30.83" height="38.5"/>
		<rect x="353.318" y="328.482" style="fill:#2D4151;" width="30.83" height="44"/>
		<rect x="353.318" y="377.482" style="fill:#2D4151;" width="30.83" height="38.5"/>
		<rect x="317.475" y="284.982" style="fill:#2D4151;" width="30.84" height="38.5"/>
		<rect x="317.475" y="328.482" style="fill:#2D4151;" width="30.84" height="44"/>
		<rect x="317.479" y="377.482" style="fill:#2D4151;" width="30.84" height="38.5"/>
	</g>
	<rect x="35.648" y="142.315" style="fill:#B52828;" width="374.667" height="51.667"/>
	<rect x="40.648" y="147.315" style="fill:#2D4151;" width="364.667" height="41.667"/>
	<g>
		<rect x="361.808" y="144.815" style="fill:#B52828;" width="5.174" height="46.667"/>
		<rect x="314.67" y="144.815" style="fill:#B52828;" width="5.174" height="46.667"/>
		<rect x="267.532" y="144.815" style="fill:#B52828;" width="5.174" height="46.667"/>
		<rect x="220.395" y="144.815" style="fill:#B52828;" width="5.174" height="46.667"/>
		<rect x="173.257" y="144.815" style="fill:#B52828;" width="5.174" height="46.667"/>
		<rect x="126.119" y="144.815" style="fill:#B52828;" width="5.174" height="46.667"/>
		<rect x="78.982" y="144.815" style="fill:#B52828;" width="5.174" height="46.667"/>
	</g>
	<rect y="111.982" style="fill:#678391;" width="441.297" height="15.5"/>
	<rect x="293.948" y="29.141" style="fill:#F93030;" width="121" height="82.84"/>
	<circle style="fill:#B52828;" cx="354.453" cy="71.76" r="28.112"/>
	<path style="fill:#2D4151;" d="M376.908,71.762c0,12.4-10.05,22.46-22.46,22.46c-7.26,0-13.72-3.45-17.82-8.8
		c-2.91-3.78-4.63-8.52-4.63-13.66c0-12.4,10.05-22.46,22.45-22.46c7.05,0,13.34,3.25,17.45,8.32
		C375.038,61.482,376.908,66.402,376.908,71.762z"/>
	<rect x="287.801" y="20.315" style="fill:#678391;" width="133.305" height="8.823"/>
	<rect x="293.948" y="29.141" style="fill:#B52828;" width="121" height="8.543"/>
	<rect x="11.648" y="127.482" style="fill:#B52828;" width="418" height="9.587"/>
	<path style="fill:#FC5454;" d="M329.232,354.982h-13.507v-6.667h13.507c1.841,0,3.333,1.492,3.333,3.333l0,0
		C332.565,353.489,331.073,354.982,329.232,354.982z"/>
	<g>
		<path style="fill:#FFFFFF;" d="M52.99,228.55h15.786v3.946H57.868v6.925h9.122v3.872h-9.122v11.318H52.99V228.55z"/>
		<path style="fill:#FFFFFF;" d="M71.718,254.612V228.55h4.84v26.062H71.718z"/>
		<path style="fill:#FFFFFF;" d="M95.807,254.612c-0.187-0.708-0.298-1.526-0.298-2.458v-2.606c0-3.947-1.266-4.617-4.729-4.617
			h-3.872v9.68h-4.915V228.55h9.531c5.138,0,9.047,1.489,9.047,7.037v1.377c0,3.463-1.526,5.287-3.761,6.292
			c2.681,0.708,3.574,2.569,3.574,5.398v3.5c0,0.968,0.075,1.787,0.335,2.458H95.807z M91.339,240.948
			c3.723,0,4.393-0.968,4.393-4.095v-0.224c0-3.127-0.484-4.095-4.356-4.095h-4.468v8.414H91.339z"/>
		<path style="fill:#FFFFFF;" d="M104.445,228.55h16.94v3.946h-12.063v7h10.127v3.872h-10.127v7.297h11.914v3.947h-16.792
			L104.445,228.55L104.445,228.55z"/>
		<path style="fill:#FFFFFF;" d="M150.871,247.873c0,5.436-3.909,6.925-9.01,6.925h-0.447c-5.212,0-9.494-1.489-9.494-7.111v-0.968
			h4.803c0,3.202,1.229,4.133,4.803,4.133c3.425,0,4.505-0.819,4.505-3.574c0,0.037,0,0.074,0,0.074c0-0.931-0.41-2.681-2.681-3.053
			l-3.388-0.521c-4.468-0.67-7.446-4.021-7.446-7.669v-0.67c0-5.547,3.872-7.074,9.047-7.074h0.447c5.212,0,8.712,1.563,8.712,7.111
			v1.005h-4.803c0-3.202-0.447-4.132-4.021-4.132h-0.111c-3.388,0-4.394,0.782-4.394,3.537c0-0.037,0-0.074,0-0.074
			c0,1.08,0.596,2.755,3.165,3.202l3.314,0.559c4.766,0.819,6.999,3.76,6.999,7.297V247.873z"/>
		<path style="fill:#FFFFFF;" d="M158.132,232.496h-5.994v-3.946h16.94v3.946h-6.069v22.116h-4.877V232.496z"/>
		<path style="fill:#FFFFFF;" d="M178.199,228.55h4.021l9.531,26.062h-5.138c-0.745-2.122-1.191-3.537-1.936-5.696h-8.898
			c-0.596,1.936-1.303,3.797-1.973,5.696h-5.063C171.833,245.937,175.034,237.225,178.199,228.55z M183.337,245.006
			c0.037-0.111-1.787-5.473-3.09-11.021h-0.074c-0.894,3.649-2.346,7.409-3.127,11.021H183.337z"/>
		<path style="fill:#FFFFFF;" d="M197.373,232.496h-5.994v-3.946h16.94v3.946h-6.069v22.116h-4.877V232.496z"/>
		<path style="fill:#FFFFFF;" d="M211.037,254.612V228.55h4.839v26.062H211.037z"/>
		<path style="fill:#FFFFFF;" d="M229.244,254.798c-5.176,0-9.049-1.526-9.049-7.074v-12.287c0-5.547,3.873-7.074,9.049-7.074h0.445
			c5.176,0,9.086,1.526,9.086,7.074v12.287c0,5.547-3.91,7.074-9.086,7.074H229.244z M229.615,250.889
			c3.686,0,4.357-0.968,4.357-4.096v-10.35c0-3.239-0.783-4.095-4.357-4.095h-0.111c-3.611,0-4.467,0.856-4.467,4.095v10.35
			c0,3.128,0.707,4.096,4.467,4.096H229.615z"/>
		<path style="fill:#FFFFFF;" d="M243.056,228.55h4.357c4.803,8.116,7.557,11.765,10.275,17.722h0.148
			c-0.186-2.644-0.186-9.308-0.186-13.44v-4.282h4.654v26.062h-4.395c-3.871-6.478-7.297-11.132-10.238-17.648h-0.148
			c0.186,3.649,0.186,7.819,0.186,11.356v6.292h-4.654V228.55H243.056z"/>
	</g>
	<path style="opacity:0.2;fill:#FCFAFA;enable-background:new    ;" d="M348.318,393.002v20.17h-28.16
		C320.158,413.172,333.798,408.812,348.318,393.002z"/>
	<path style="opacity:0.2;fill:#FCFAFA;enable-background:new    ;" d="M381.628,305.722v17.76h-2.21
		C380.358,317.902,381.108,311.992,381.628,305.722z"/>
	<path style="opacity:0.2;fill:#FCFAFA;enable-background:new    ;" d="M378.508,328.482h3.12v44h-18.62
		C369.368,361.072,374.969,346.652,378.508,328.482z"/>
	<path style="opacity:0.2;fill:#FCFAFA;enable-background:new    ;" d="M360.068,377.482h21.56v35.69h-28.31v-26.06
		C355.598,384.212,357.868,381.012,360.068,377.482z"/>
	<path style="opacity:0.2;fill:#FCFAFA;enable-background:new    ;" d="M321.828,253.972c10.51-0.88,19.24-2.88,26.49-5.51v5.51
		H321.828z"/>
	<path style="opacity:0.2;fill:#FCFAFA;enable-background:new    ;" d="M381.888,219.612v34.36h-28.57v-7.52
		C376.588,236.172,381.888,219.612,381.888,219.612z"/>
	<path style="opacity:0.2;fill:#FCFAFA;enable-background:new    ;" d="M374.388,72.282c0,10.848-8.792,19.649-19.649,19.649
		c-6.351,0-12.003-3.018-15.59-7.699c14.855-7.567,24.618-16.631,30.856-24.321C372.752,63.289,374.388,67.593,374.388,72.282z"/>
	<g>
		<path style="opacity:0.2;fill:#FCFAFA;enable-background:new    ;" d="M402.804,148.416v38.002h-21.739
			C381.064,186.418,400.141,180.315,402.804,148.416z"/>
		<path style="opacity:0.2;fill:#FCFAFA;enable-background:new    ;" d="M359.161,148.416v38.002h-21.739
			C337.421,186.418,356.498,180.315,359.161,148.416z"/>
		<path style="opacity:0.2;fill:#FCFAFA;enable-background:new    ;" d="M311.518,148.416v38.002h-21.739
			C289.779,186.418,308.855,180.315,311.518,148.416z"/>
		<path style="opacity:0.2;fill:#FCFAFA;enable-background:new    ;" d="M264.208,148.416v38.002h-21.739
			C242.469,186.418,261.545,180.315,264.208,148.416z"/>
		<path style="opacity:0.2;fill:#FCFAFA;enable-background:new    ;" d="M217.899,148.416v38.002H196.16
			C196.16,186.418,215.236,180.315,217.899,148.416z"/>
		<path style="opacity:0.2;fill:#FCFAFA;enable-background:new    ;" d="M170.923,148.416v38.002h-21.739
			C149.183,186.418,168.26,180.315,170.923,148.416z"/>
		<path style="opacity:0.2;fill:#FCFAFA;enable-background:new    ;" d="M123.946,148.416v38.002h-21.739
			C102.207,186.418,121.283,180.315,123.946,148.416z"/>
		<path style="opacity:0.2;fill:#FCFAFA;enable-background:new    ;" d="M76.304,148.416v38.002h-21.74
			C54.564,186.418,73.641,180.315,76.304,148.416z"/>
	</g>
	<rect x="352.203" y="46.232" style="fill:#B52828;" width="4.5" height="50.5"/>
	<rect x="329.203" y="69.232" style="fill:#B52828;" width="50.5" height="4.5"/>
	<g>
		<circle style="fill:#E5AB29;" cx="293.563" cy="306.815" r="4.833"/>
		<path style="fill:#2D4151;" d="M293.563,265.648L293.563,265.648c-0.916,0-1.658,0.742-1.658,1.658v19.254h3.316v-19.254
			C295.221,266.391,294.479,265.648,293.563,265.648z"/>
		<path style="fill:#F9C032;" d="M301.546,297.201v-9.421c0-4.409-3.574-7.982-7.982-7.982s-7.982,3.574-7.982,7.982v9.421
			c-2.176,1.029-3.684,3.237-3.684,5.803v3.811h23.333v-3.811C305.23,300.437,303.721,298.229,301.546,297.201z"/>
	</g>
</g>
<g>
</g>
<g>
</g>
<g>
</g>
<g>
</g>
<g>
</g>
<g>
</g>
<g>
</g>
<g>
</g>
<g>
</g>
<g>
</g>
<g>
</g>
<g>
</g>
<g>
</g>
<g>
</g>
<g>
</g>
</svg>
